<svg xmlns="http://www.w3.org/2000/svg" viewBox="0 0 100 100"><path d="M13.984 23A1 1 0 0013 24v16a1 1 0 00.293.707l36 36a1 1 0 001.414 0l36-36A1 1 0 0087 40V24a1 1 0 00-1.707-.707L50 58.586 14.707 23.293a1 1 0 00-.723-.293zM15 26.414l34.293 34.293a1 1 0 001.414 0L85 26.414v13.172l-35 35-35-35V26.414zm5.494 14.08a.5.5 0 00-.348.86l16.5 16.5a.5.5 0 10.708-.708l-16.5-16.5a.5.5 0 00-.36-.152zm58.996.002a.5.5 0 00-.344.15l-24 24a.5.5 0 10.708.708l24-24a.5.5 0 00-.364-.858zM42.494 62.494a.5.5 0 00-.348.86l3.5 3.5a.5.5 0 10.708-.708l-3.5-3.5a.5.5 0 00-.36-.152zm6 6a.5.5 0 00-.348.86l1.5 1.5a.5.5 0 10.708-.708l-1.5-1.5a.5.5 0 00-.36-.152z"/></svg>